<?xml version="1.0"?>
<svg xmlns="http://www.w3.org/2000/svg" xmlns:xlink="http://www.w3.org/1999/xlink" xmlns:svgjs="http://svgjs.com/svgjs" version="1.1" width="512" height="512" x="0" y="0" viewBox="0 0 24 24" style="enable-background:new 0 0 512 512" xml:space="preserve" class=""><g><path xmlns="http://www.w3.org/2000/svg" d="m24 14.5v-5c0-.552-.448-1-1-1h-9.25c-.552 0-1 .448-1 1v5c0 .552.448 1 1 1h9.25c.552 0 1-.448 1-1z" fill="#f2f5ea" data-original="#000000" style="" class=""/><path xmlns="http://www.w3.org/2000/svg" d="m13.75 7h9.25c.552 0 1-.448 1-1v-5c0-.552-.448-1-1-1h-9.25c-.552 0-1 .448-1 1v5c0 .552.448 1 1 1z" fill="#f2f5ea" data-original="#000000" style="" class=""/><path xmlns="http://www.w3.org/2000/svg" d="m11.25 17v-1.5-7-1.5-6c0-.552-.448-1-1-1h-9.25c-.552 0-1 .448-1 1v22c0 .552.448 1 1 1h9.25c.552 0 1-.448 1-1z" fill="#f2f5ea" data-original="#000000" style="" class=""/><path xmlns="http://www.w3.org/2000/svg" d="m12.75 18v5c0 .552.448 1 1 1h9.25c.552 0 1-.448 1-1v-5c0-.552-.448-1-1-1h-9.25c-.552 0-1 .448-1 1z" fill="#f2f5ea" data-original="#000000" style="" class=""/></g></svg>
